<?xml version="1.0" encoding="UTF-8"?>
<svg viewBox="0 0 656 452" xmlns="http://www.w3.org/2000/svg" xmlns:xlink="http://www.w3.org/1999/xlink">
 <defs>
  <filter id="ag">
   <feGaussianBlur stdDeviation="1.017"/>
  </filter>
  <filter id="e"/>
  <filter id="af" x="-.0916" y="-.1741" width="1.1831" height="1.3482">
   <feGaussianBlur stdDeviation="1.656"/>
  </filter>
  <filter id="f" x="-.066" y="-.1593" width="1.132" height="1.3187">
   <feGaussianBlur stdDeviation="2.722"/>
  </filter>
  <filter id="d" x="-.083" y="-.133" width="1.1661" height="1.2659">
   <feGaussianBlur stdDeviation=".554"/>
  </filter>
  <linearGradient id="a">
   <stop stop-color="#2e3436" offset="0"/>
   <stop stop-color="#2e3436" stop-opacity="0" offset="1"/>
  </linearGradient>
  <linearGradient id="b">
   <stop stop-color="#404648" offset="0"/>
   <stop stop-color="#cf4913" offset="1"/>
  </linearGradient>
  <linearGradient id="c">
   <stop stop-color="#fff" offset="0"/>
   <stop stop-color="#fff" stop-opacity="0" offset="1"/>
  </linearGradient>
  <linearGradient id="k" x1="184.09" x2="201.58" y1="46.9" y2="14.283" gradientUnits="userSpaceOnUse">
   <stop stop-color="#0ab598" offset="0"/>
   <stop stop-color="#a8dde0" offset="1"/>
  </linearGradient>
  <linearGradient id="h" x2="0" y1="138.79" y2="109.01" gradientUnits="userSpaceOnUse">
   <stop stop-color="#0bb598" offset="0"/>
   <stop stop-color="#00c4cc" offset="1"/>
  </linearGradient>
  <linearGradient id="z" x1="139" x2="105.58" y1="55" y2="218.11" gradientUnits="userSpaceOnUse">
   <stop stop-color="#37a42c" offset="0"/>
   <stop stop-color="#067d2a" offset=".793"/>
   <stop stop-color="#42484a" offset="1"/>
  </linearGradient>
  <linearGradient id="y" x1="-335.73" x2="-334.67" y1="-99.201" y2="-75.16" gradientUnits="userSpaceOnUse">
   <stop stop-color="#00782a" offset="0"/>
   <stop stop-color="#265133" offset="1"/>
  </linearGradient>
  <linearGradient id="x" x2="0" y1="-77.918" y2="-83.696" gradientUnits="userSpaceOnUse">
   <stop stop-color="#14932c" offset="0"/>
   <stop stop-color="#1d5b31" offset="1"/>
  </linearGradient>
  <linearGradient id="w" x2="0" y1="-294.21" y2="57.791" gradientUnits="userSpaceOnUse">
   <stop stop-color="#d8e8c2" offset="0"/>
   <stop stop-color="#eeeeec" offset="1"/>
  </linearGradient>
  <linearGradient id="v" x2="0" y1="265.79" y2="-88.209" gradientUnits="userSpaceOnUse">
   <stop stop-color="#eeeeec" offset="0"/>
   <stop stop-color="#fafaf9" offset="1"/>
  </linearGradient>
  <linearGradient id="u" x1="-157.94" x2="-148.36" y1="-9.1721" y2="-17.556" gradientUnits="userSpaceOnUse">
   <stop stop-color="#14932c" offset="0"/>
   <stop stop-color="#17612f" offset="1"/>
  </linearGradient>
  <linearGradient id="t" x1="249" x2="232.91" y1="82.25" y2="87.719" gradientUnits="userSpaceOnUse">
   <stop stop-color="#1c5b31" offset="0"/>
   <stop stop-color="#14932c" offset="1"/>
  </linearGradient>
  <linearGradient id="i" x1="-201.52" x2="-320.27" y1="86.705" y2="-149.57" gradientUnits="userSpaceOnUse">
   <stop stop-color="#f7f7f6" offset="0"/>
   <stop stop-color="#f7f7f6" stop-opacity="0" offset="1"/>
  </linearGradient>
  <linearGradient id="j" x1="-101.06" x2="-120.72" y1="-171.12" y2="-183.83" gradientUnits="userSpaceOnUse" xlink:href="#c"/>
  <linearGradient id="g" x1="362.05" x2="368.77" y1="186.05" y2="190.54" gradientUnits="userSpaceOnUse" xlink:href="#c"/>
  <linearGradient id="ae" x2="0" y1="144.88" y2="133.59" gradientUnits="userSpaceOnUse" xlink:href="#b"/>
  <linearGradient id="ad" x1="117.75" x2="108.75" y1="203.5" y2="184.25" gradientUnits="userSpaceOnUse" xlink:href="#b"/>
  <linearGradient id="ac" x1="-268.01" x2="-269.05" y1="133.9" y2="120.3" gradientUnits="userSpaceOnUse" xlink:href="#b"/>
  <linearGradient id="ab" x1="-257.93" x2="-270.64" y1="151.22" y2="132.5" gradientUnits="userSpaceOnUse" xlink:href="#b"/>
  <linearGradient id="aa" x1="-248.21" x2="-260.92" y1="145.39" y2="126.67" gradientUnits="userSpaceOnUse" xlink:href="#b"/>
  <linearGradient id="s" x1="-166.55" x2="-151.56" y1="-3.3884" y2="-3.5859" gradientTransform="matrix(1.6303 0 0 .67183 89.52 -12.357)" gradientUnits="userSpaceOnUse" xlink:href="#a"/>
  <linearGradient id="r" x1="-166.55" x2="-151.56" y1="-3.3884" y2="-3.5859" gradientTransform="matrix(1.0869 -.649 .37392 .4611 20.522 -92.074)" gradientUnits="userSpaceOnUse" xlink:href="#a"/>
  <linearGradient id="q" x1="-166.55" x2="-151.56" y1="-3.3884" y2="-3.5859" gradientTransform="matrix(1.3706 -.42522 .21072 .46965 53.738 -72.451)" gradientUnits="userSpaceOnUse" xlink:href="#a"/>
  <linearGradient id="p" x1="-166.55" x2="-151.56" y1="-3.3884" y2="-3.5859" gradientTransform="matrix(1.1464 -.5389 .17625 .59521 23.587 -82.176)" gradientUnits="userSpaceOnUse" xlink:href="#a"/>
  <linearGradient id="o" x1="-152.79" x2="-166.17" y1="-6.2947" y2="1.6697" gradientTransform="matrix(-.89366 .36949 .2567 .62086 -293.39 42.639)" gradientUnits="userSpaceOnUse" xlink:href="#a"/>
  <linearGradient id="n" x1="-152.79" x2="-166.17" y1="-6.2947" y2="1.6697" gradientTransform="matrix(-.95145 .17288 .12011 .66101 -299.69 18.383)" gradientUnits="userSpaceOnUse" xlink:href="#a"/>
  <linearGradient id="m" x1="-152.79" x2="-166.17" y1="-6.2947" y2="1.6697" gradientTransform="matrix(-.85227 .02438 .01879 .5336 -281.51 2.0009)" gradientUnits="userSpaceOnUse" xlink:href="#a"/>
  <linearGradient id="l" x1="-152.79" x2="-166.17" y1="-6.2947" y2="1.6697" gradientTransform="matrix(-.70535 .02753 .01555 .60255 -254.19 11.608)" gradientUnits="userSpaceOnUse" xlink:href="#a"/>
 </defs>
 <g transform="translate(713.37 228.21)">
  <path d="m-713.37-228.21h656v228h-656z" fill="url(#w)"/>
  <path d="m-258.75-149.57c-82.607 0-150.34 63.447-157.28 144.26h314.62c-6.9381-80.809-74.729-144.26-157.34-144.26z" fill="url(#i)" opacity=".421"/>
  <path d="m-713.37-4.2091h656v228h-656z" fill="url(#v)"/>
  <path transform="translate(-399.37 -80.209)" d="m55.312 137.94-50.562 34.281-87.75-26.156 83.844 28.781-0.3438 0.25c0.7008 0.121 1.3946 0.2537 2.0938 0.375l79.469 27.281-7.5625 5.7813-122.25 10-10.844 1.9688-44.531-6.9063 38.125-17.656-42.344 17.031-89.688-13.906 123.44 24.156-231.41 42.125 161.84-26.438 82.156 27.094-72.531-28.656 88.188-14.406 126.66-8.5-7.4063 40.188 24.562-37.656 71.75 20.375-66.906 12.219 72.531-10.625 69.156 19.656-129.06-43.906 75.281 0.4688-67.719-6.25 58.812-8.7813 42.812 25.062-35.75-26.125 115.62-17.281-188.31 21.25 1.4063-38.188-18.562 35.625-86.188-25.688 10.875-9.5313 43.688 9.4375-42.375-10.594 29.781-26.156z" fill="#2e3436" opacity=".902"/>
  <g transform="matrix(.88985 0 0 .88985 -486.31 -150.46)">
   <path d="m119.75 126.73c0 6.6616-4.5476 12.062-10.157 12.062s-10.157-5.4003-10.157-12.062 6.5791-21.457 10.411-24.251c5.1019 3.5551 9.9034 17.589 9.9034 24.251z" fill="url(#h)" opacity=".673"/>
   <path transform="matrix(.80769 0 0 .80769 -75.951 114.78)" d="m222.48 1.1972c0-3.5899 2.6493-8.9349 6.2391-8.9349-2.1909 4.7881-1.9513 8.0647-6.2391 8.9349z" fill="#d9f3ef" filter="url(#e)"/>
   <path transform="matrix(-1.0831 -1.4003 1.4003 -1.0831 242.39 848.4)" d="m367.1563,184.625c-2.5801,0-4.6563,2.1074-4.6563,4.6875 0,2.1189 1.4104,3.8655 3.3438,4.4375-.6664-.8075-1.0938-1.8087-1.0938-2.9375 0-2.5801 2.0762-4.6875 4.6563-4.6875 .4612,0 .9229.0942 1.3438.2188-.8569-1.0383-2.1424-1.7188-3.5938-1.7188z" fill="url(#g)" filter="url(#e)"/>
  </g>
  <path d="m-317.3685,122.291-.875.0937 .4375.1563-7.5625,5.7813-122.25,10-10.8438,1.9688-.5625-.0937 .6563,4.6875 13.1563-2.1563 126.6563-8.5-2.0591,18.4579 8.6516-1.5694-3.905-18.826-1.5-10z" fill="url(#ae)" opacity=".902"/>
  <path transform="translate(-399.37 -80.209)" d="m99.75 200.75 1 17.25 16.78-13.868 0.2197-38.132-18 34.75z" fill="url(#ad)"/>
  <path d="m-281.94 122.13 0.2929 11.77 7.4524-0.0126-6e-3 -5.1685 57.771-8.8638 1.1036-4.7209-66.614 6.9961z" fill="url(#ac)"/>
  <path d="m-283.53 134.33 0.1161 8.4112 57.793 14.593 1.4571-1.8925-59.366-21.111-3e-4 -5e-5z" fill="url(#ab)"/>
  <path d="m-273.81 128.5c-1.7617 0.1784 0.0704 3.9505 0.1161 5.9363l59.561 0.6275 2.8713-0.3015-62.548-6.2622-3e-4 -5e-5z" fill="url(#aa)"/>
  <path transform="translate(-399.37 -80.209)" d="m84.812-23.375c-1.9407 0.0334-3.8874 0.1517-5.8125 0.375 10.301-0.8492 17.24 4.2004 26.527 8.5257 9.2874 4.3247 19.498 8.9708 25.371 17.254s10.954 17.05 11.946 27.064c0.9407 9.4813-0.522 19.141-4.125 27.875-1.921 3.1095-3.5563 6.3624-5.0313 9.6875-4.6786 7.4112-10.745 14.086-16.969 20.594-8.4829 8.7961-17.512 17.539-24.5 28.25-9.7562 15.056-14.527 33.348-13.312 51.438 1.2264 18.089 8.4077 35.726 20.344 49.625l14.712 2.5627 3.395-7.7735c-10.906-11.854-22.204-28.18-23.836-44.395-1.644-16.214-1.4185-33.128 7.0895-47.25 6.0506-10.118 11.762-19.604 20.015-28.801 10.711-9.8543 16.641-22.854 23.844-35.094 5.5161-8.3079 13.262-15.194 22.25-19.719s19.484-5.712 29.625-5.1875 14.936 3.9738 23.562 9.5 11.324 14.628 16.125 23.781c-0.8426-1.7452 1.4801-4.2183 0.4688-5.875-4.3821-7.1791-8.0222-15.196-15-20-8.5884-5.9122-14.77-9.5768-25.25-10.469s-21.246 0.985-30.875 5.4375c-7.5451 3.4906-14.371 8.5653-19.969 14.781 1.1805-6.3813 1.3502-12.938 0.5-19.344-1.3976-10.516-5.5719-20.596-11.938-28.969s-19.15-13.594-28.743-17.68c-7.7944-3.3191-12.004-6.3404-20.414-6.1955z" fill="url(#z)" fill-rule="evenodd"/>
  <path d="m-343.9-102.34c-22.003 4.4245-35.983 9.3517-44.188 15.562-3.7204 2.8164-4.3707 3.6996-3.7813 5.25l1.6553 13.625 2.1642-7.0738c2.6619-4.1277 8.0268-3.4294 33.783-1.992 33.824 1.8877 49.811-0.3154 56.718-7.1348 5.7449-6.2215 3.6925-17.284 3.9795-25.154-15.363 4.6732-31.961 3.4087-50.331 6.917z" fill="url(#y)"/>
  <path d="m-390.522-70.992c-1.4164-2.8317-2.7186-5.8845-3.3718-7.9047-.4472-1.3831-.5189-4.1051-.1499-5.6872 .7927-3.3986 2.4762-7.0803 4.6236-10.1117 1.8679-2.6368 5.5396-6.2337 8.1252-7.9596 4.3908-2.9309 9.0354-4.6576 14.6725-5.455 1.8982-.2685 7.4379-.274 9.9879-.01 2.3997.2485 8.2877.2604 10.4298.021 4.0742-.4553 8.2408-1.6464 11.4905-3.2847 1.0695-.5392 3.2969-1.8776 4.9497-2.9742 3.5022-2.3236 3.5981-2.3777 4.7456-2.6805 1.0151-.2678 1.6559-.1786 2.7928.3888 1.5982.7976 3.8275,4.0824 4.4862,6.61 .352,1.351.2954,4.5335-.0849,4.7685-.1219.0753-.6706.1886-1.2193.2516s-3.0261.4361-5.5054.8291c-30.6031,4.851-50.9245,10.8796-60.8996,18.0668-2.3243,1.6747-3.8426,3.036-4.79,4.2948l-.947,1.2583 .361,1.0273c.5363,1.5258 1.8905,10.1199 1.7261,10.9543-.0365.1854-.6283-.8138-1.4231-2.4028z" fill="#14932c"/>
  <path d="m-298.54-89.473c-12.605 16.91-72.628 2.6355-79.188 9.875 4.7673 0.1483 11.145 0.5318 20.094 1.0313 33.824 1.8877 49.812-0.3055 56.719-7.125 1.0296-1.115 1.7879-2.4015 2.375-3.7813z" fill="url(#x)" opacity=".534"/>
  <path d="m-379.92-98.141 1.9445 7.7871s3.0855-0.882 2.3784-1.4124-4.1461-3.723-4.3229-6.3747z" fill="#0b6d2d" opacity=".387"/>
  <path d="m-369.67-102.03 1.6945 7.5996s3.273-0.4445 2.5659-0.9749-4.0836-3.973-4.2604-6.6247z" fill="#0b6d2d" opacity=".387"/>
  <path d="m-357.12-105.04 1.5695 7.1621s3.273-0.382 2.5659-0.9124-3.9586-3.598-4.1354-6.2497z" fill="#0b6d2d" opacity=".387"/>
  <path d="m-342.45-105.74 1.1945 4.5371s2.8355 0.1805 2.1284-0.3499-2.5211-1.7855-3.3229-4.1872v3e-5z" fill="#0b6d2d" opacity=".387"/>
  <path d="m-331.13-109.98 1.507 6.4746s4.7105-0.0695 4.0034-0.5999-5.3336-3.223-5.5104-5.8747z" fill="#0b6d2d" opacity=".387"/>
  <path d="m-294.01 120.71-9.5459-12.021-7.0711-33.941 5.6569-30.406 15.203-23.688 17.324-18.738-25.102 33.941-6.364 11.314-4.5962 29.345 7.0711 34.648 7.4246 9.5459z" fill="#355443" filter="url(#ag)"/>
  <path d="m-164.69-24.908 25.871 53.621 5.0479 3.9697c5.8687-32.841-3.4182-43.226-20.935-69.21-1.664 10.249-3.0948 10.184-9.984 11.62z" fill="url(#u)"/>
  <path transform="translate(-399.37 -80.209)" d="m233.97 55.312c-2.9511 8.2493-13.468-1.0129-33.28-0.2105 3.8409 16.478 42.935 51.2 55.936 55.648 9.3698-4.6849 7.875 9.625 7.875 9.625l2.0938-10.906-31.469-53.812c-0.3793-0.0817-0.7277-0.3312-1.1563-0.3438z" fill="url(#t)"/>
  <path d="m-157.7-13.6s-20.065-1.3203-25.507-0.2296c4.7095-2.5802 15.51-3.0345 22.76-1.9135 2.7469 1.3777 3.1393 2.2962 2.7469 2.1431z" fill="url(#s)" opacity=".218"/>
  <path d="m-144.69 5.2803s-11.841 6.0815-14.861 8.9963c1.7035-3.6456 7.2662-7.4719 12.724-9.5888 2.5981-0.1479 2.4845 0.5413 2.1377 0.5925z" fill="url(#r)" opacity=".218"/>
  <path transform="translate(-399.37 -80.209)" d="m235.19 55.688 7.9375 12.25 7.1875 12.562 16 27.812-0.125 0.375-13.688-23.125-17.312-29.875z" fill="#2e3436" opacity=".4"/>
  <path d="m-154.48-8.8407s-17.282 4.3104-21.515 6.4922c3.1498-3.032 12.087-6.1665 18.533-7.2739 2.7413 0.2467 3.3593 0.7864 2.9814 0.7817z" fill="url(#q)" opacity=".218"/>
  <path d="m-150.57-1.5607s-14.456 5.4627-17.996 8.2277c2.6346-3.8426 10.11-7.815 15.502-9.2185 2.2929 0.3126 2.8098 0.9966 2.4938 0.9907z" fill="url(#p)" opacity=".218"/>
  <path d="m-157.82-14.76s9.9639-5.5467 13.364-5.7721c-3.5673-1.3171-10.545 1.9041-14.091 4.5832l0.7274 1.1889z" fill="url(#o)" opacity=".218"/>
  <path d="m-155.07-9.1594s10.909-3.3225 14.28-2.8264c-3.2097-2.0392-10.709-0.3607-14.74 1.511l0.4605 1.3154z" fill="url(#n)" opacity=".218"/>
  <path d="m-151.8-2.6989s9.9461-1.333 12.821-0.5481c-2.5341-1.9789-9.2931-1.5385-13.052-0.5398l0.2306 1.0878z" fill="url(#m)" opacity=".218"/>
  <path d="m-146.84 6.3011s8.2315-1.5052 10.611-0.6189c-2.0973-2.2346-7.6911-1.7373-10.802-0.6095l0.1908 1.2284z" fill="url(#l)" opacity=".218"/>
  <g transform="matrix(.39332 0 0 .43535 -119 76.191)">
   <path transform="matrix(.96845 .2492 -.15803 .61414 -290.68 -258.77)" d="m207 49.806c0 11.322-10.074 20.5-22.5 20.5s-22.5-9.1782-22.5-20.5 12.44-28.369 24.867-28.369 20.133 17.047 20.133 28.369z" fill="url(#k)"/>
   <path d="m-101.45-174.9c-0.631 2.5166-8.3949 4.5873-12.639 3.4665s-7.1737-4.0696-6.5427-6.5862 11.721-6.749 15.965-5.6282 3.8477 6.2313 3.2167 8.7479z" fill="url(#j)"/>
   <path d="m-141.88-189.12c-0.9327 1.1228-1.6105 2.2883-1.9063 3.4375-1.7892 6.9532 6.5281 15.091 18.562 18.188 11.282 2.9031 21.844 0.3426 24.594-5.7188-4.029 4.4923-13.335 6.1291-23.188 3.5938-12.034-3.0967-20.32-11.234-18.531-18.188 0.1118-0.4346 0.2596-0.8773 0.4688-1.3125z" fill="#babdb6" filter="url(#af)" opacity=".673"/>
   <path d="m-132.5756-189.1631c-1.5133.8812-3.0306.3749-3.3889-1.1308s.5779-3.4407 2.0912-4.3219 4.1506-.7005 4.5089.8052-1.6979,3.7663-3.2112,4.6475z" fill="#f4f4f3"/>
  </g>
  <path transform="matrix(.88903 0 0 .88903 -33.718 14.233)" d="m-310.37 134.79-32 7-39-1s-15.5-2.5-28 35c49-3.5 50.256-0.9814 74.109-14.627l1.8908-12.373 23-14z" fill="#bfc1be" filter="url(#f)" opacity=".421"/>
  <path transform="matrix(-1 0 0 1 -505.74 0)" d="m-225.37 127.79-117 14-16.989-13.436-22.011 12.436-28 35 77.947-17.171-7.9466-7.8292 120-29-6 6z" fill="#c3c4c2" filter="url(#f)" opacity=".421"/>
  <path d="m-359.5469,128.6008c2.186,1.001 4.6206,1.4515 6.8675.4429 5.3166-1.2961 5.7537-.6624 5.8276-7.5083-.0535-.6746.6632-1.6956-.4098-1.8714-4.5278-.4222-9.7289,1.9122-14.7178,3.2244-.7605.392-.8512,1.3137-.5017,2.012 .4771,1.5852 1.4712,2.9103 2.9343,3.7003z" fill="#c5c6c3" filter="url(#d)"/>
  <path d="m-356.5469,127.6008c2.186,1.001 4.6206,1.4515 6.8675.4429 5.3166-1.2961 5.7537-.6624 5.8276-7.5083-.0535-.6746.6632-1.6956-.4098-1.8714-4.5278-.4222-9.7289,1.9122-14.7178,3.2244-.7605.392-.8512,1.3137-.5017,2.012 .4771,1.5852 1.4712,2.9103 2.9343,3.7003z" fill="#c14a1a"/>
  <path transform="matrix(.66522 0 0 .66522 -122.97 38.752)" d="m-376.2969,127.6008c2.186,1.001 4.6206,1.4515 6.8675.4429 5.3166-1.2961 5.7537-.6624 5.8276-7.5083-.0535-.6746.6632-1.6956-.4098-1.8714-4.5278-.4222-9.7289,1.9122-14.7178,3.2244-.7605.392-.8512,1.3137-.5017,2.012 .4771,1.5852 1.4712,2.9103 2.9343,3.7003z" fill="#c5c6c3" filter="url(#d)"/>
  <path d="m-372.4151,120.9058c.9373.9506 2.2454,1.7031 3.6277,1.543 .997-.0965 2.0191.2103 2.9991-.0691 .6832-.1986.9987-.9032 1.2769-1.4903 .3799-.865.6007-1.7901.9772-2.6553 .3997-.3756.1818-.9814-.3649-1.0405-1.9883-.6618-4.1143-.53-6.1767-.458-.8862.047-1.7802.0306-2.6626.0797-.528.1988-.6612.8278-.6074,1.327-.0208.9884.2638,2.0115.9308,2.7634z" fill="#c14a1a"/>
 </g>
</svg>
